<?xml version="1.0" encoding="UTF-8" standalone="no"?>
<!-- Created with Inkscape (http://www.inkscape.org/) -->

<svg
   xmlns:dc="http://purl.org/dc/elements/1.1/"
   xmlns:cc="http://creativecommons.org/ns#"
   xmlns:rdf="http://www.w3.org/1999/02/22-rdf-syntax-ns#"
   xmlns:svg="http://www.w3.org/2000/svg"
   xmlns="http://www.w3.org/2000/svg"
   version="1.1"
   width="2048"
   height="2048"
   viewBox="0 0 2048 2048"
   id="svg3033">
  <metadata
     id="metadata3041">
    <rdf:RDF>
      <cc:Work
         rdf:about="">
        <dc:format>image/svg+xml</dc:format>
        <dc:type
           rdf:resource="http://purl.org/dc/dcmitype/StillImage" />
        <dc:title></dc:title>
      </cc:Work>
    </rdf:RDF>
  </metadata>
  <defs
     id="defs3039" />
  <path
     d="m 800,1600 q 0,-40 -28,-68 -28,-28 -68,-28 -40,0 -68,28 -28,28 -28,68 0,40 28,68 28,28 68,28 40,0 68,-28 28,-28 28,-68 z m 0,-1152 q 0,-40 -28,-68 -28,-28 -68,-28 -40,0 -68,28 -28,28 -28,68 0,40 28,68 28,28 68,28 40,0 68,-28 28,-28 28,-68 z m 640,128 q 0,-40 -28,-68 -28,-28 -68,-28 -40,0 -68,28 -28,28 -28,68 0,40 28,68 28,28 68,28 40,0 68,-28 28,-28 28,-68 z m 96,0 q 0,52 -26,96.5 -26,44.5 -70,69.5 -2,287 -226,414 -68,38 -203,81 -128,40 -169.5,71 -41.5,31 -41.5,100 v 26 q 44,25 70,69.5 26,44.5 26,96.5 0,80 -56,136 -56,56 -136,56 -80,0 -136,-56 -56,-56 -56,-136 0,-52 26,-96.5 26,-44.5 70,-69.5 V 614 Q 564,589 538,544.5 512,500 512,448 q 0,-80 56,-136 56,-56 136,-56 80,0 136,56 56,56 56,136 0,52 -26,96.5 -26,44.5 -70,69.5 v 497 q 54,-26 154,-57 55,-17 87.5,-29.5 32.5,-12.5 70.5,-31 38,-18.5 59,-39.5 21,-21 40.5,-51 19.5,-30 28,-69.5 8.5,-39.5 8.5,-91.5 -44,-25 -70,-69.5 -26,-44.5 -26,-96.5 0,-80 56,-136 56,-56 136,-56 80,0 136,56 56,56 56,136 z"
     id="path3035"
     style="fill:#ff4136;fill-opacity:1" />
</svg>
